<mxfile host="app.diagrams.net" agent="Mozilla/5.0 (Macintosh; Intel Mac OS X 10_15_7) AppleWebKit/537.36 (KHTML, like Gecko) Chrome/138.0.0.0 Safari/537.36" version="28.0.7">
  <diagram name="Page-1" id="4T8xqUrhuKZQ3ZaQXWnf">
    <mxGraphModel dx="1104" dy="684" grid="1" gridSize="10" guides="1" tooltips="1" connect="1" arrows="1" fold="1" page="1" pageScale="1" pageWidth="827" pageHeight="1169" math="0" shadow="0">
      <root>
        <mxCell id="0" />
        <mxCell id="1" parent="0" />
        <mxCell id="Ldn0-aXc2dHIy_c38FwD-1" value="Start" style="ellipse;whiteSpace=wrap;html=1;fillColor=#d5e8d4;strokeColor=#82b366;" vertex="1" parent="1">
          <mxGeometry x="223" y="70" width="80" height="40" as="geometry" />
        </mxCell>
        <mxCell id="Ldn0-aXc2dHIy_c38FwD-3" value="End" style="ellipse;whiteSpace=wrap;html=1;fillColor=#d5e8d4;strokeColor=#82b366;" vertex="1" parent="1">
          <mxGeometry x="224" y="720" width="80" height="40" as="geometry" />
        </mxCell>
        <mxCell id="Ldn0-aXc2dHIy_c38FwD-4" value="Enter username and password" style="rounded=0;whiteSpace=wrap;html=1;fillColor=#dae8fc;strokeColor=#6c8ebf;" vertex="1" parent="1">
          <mxGeometry x="204" y="140" width="120" height="60" as="geometry" />
        </mxCell>
        <mxCell id="Ldn0-aXc2dHIy_c38FwD-5" value="" style="endArrow=classic;html=1;rounded=0;exitX=0.5;exitY=1;exitDx=0;exitDy=0;" edge="1" parent="1" target="Ldn0-aXc2dHIy_c38FwD-4">
          <mxGeometry width="50" height="50" relative="1" as="geometry">
            <mxPoint x="264" y="110" as="sourcePoint" />
            <mxPoint x="404" y="260" as="targetPoint" />
          </mxGeometry>
        </mxCell>
        <mxCell id="Ldn0-aXc2dHIy_c38FwD-7" value="Is username valid?" style="rhombus;whiteSpace=wrap;html=1;" vertex="1" parent="1">
          <mxGeometry x="189" y="390" width="150" height="80" as="geometry" />
        </mxCell>
        <mxCell id="Ldn0-aXc2dHIy_c38FwD-9" value="Show error message" style="shape=parallelogram;perimeter=parallelogramPerimeter;whiteSpace=wrap;html=1;fixedSize=1;" vertex="1" parent="1">
          <mxGeometry x="415" y="399" width="140" height="60" as="geometry" />
        </mxCell>
        <mxCell id="Ldn0-aXc2dHIy_c38FwD-38" style="edgeStyle=orthogonalEdgeStyle;rounded=0;orthogonalLoop=1;jettySize=auto;html=1;exitX=0.5;exitY=0;exitDx=0;exitDy=0;entryX=1;entryY=0.5;entryDx=0;entryDy=0;" edge="1" parent="1" source="Ldn0-aXc2dHIy_c38FwD-10" target="Ldn0-aXc2dHIy_c38FwD-4">
          <mxGeometry relative="1" as="geometry" />
        </mxCell>
        <mxCell id="Ldn0-aXc2dHIy_c38FwD-10" value="Increment attempt" style="rounded=0;whiteSpace=wrap;html=1;fillColor=#dae8fc;strokeColor=#6c8ebf;" vertex="1" parent="1">
          <mxGeometry x="635" y="399" width="120" height="60" as="geometry" />
        </mxCell>
        <mxCell id="Ldn0-aXc2dHIy_c38FwD-32" style="edgeStyle=orthogonalEdgeStyle;rounded=0;orthogonalLoop=1;jettySize=auto;html=1;entryX=0.5;entryY=1;entryDx=0;entryDy=0;exitX=1;exitY=0.5;exitDx=0;exitDy=0;" edge="1" parent="1" source="Ldn0-aXc2dHIy_c38FwD-11" target="Ldn0-aXc2dHIy_c38FwD-9">
          <mxGeometry relative="1" as="geometry">
            <mxPoint x="340" y="561" as="sourcePoint" />
          </mxGeometry>
        </mxCell>
        <mxCell id="Ldn0-aXc2dHIy_c38FwD-11" value="Is password correct?" style="rhombus;whiteSpace=wrap;html=1;" vertex="1" parent="1">
          <mxGeometry x="189" y="520" width="150" height="80" as="geometry" />
        </mxCell>
        <mxCell id="Ldn0-aXc2dHIy_c38FwD-13" value="" style="endArrow=classic;html=1;rounded=0;exitX=1;exitY=0.5;exitDx=0;exitDy=0;" edge="1" parent="1" source="Ldn0-aXc2dHIy_c38FwD-7" target="Ldn0-aXc2dHIy_c38FwD-9">
          <mxGeometry width="50" height="50" relative="1" as="geometry">
            <mxPoint x="335" y="459" as="sourcePoint" />
            <mxPoint x="335" y="495" as="targetPoint" />
          </mxGeometry>
        </mxCell>
        <mxCell id="Ldn0-aXc2dHIy_c38FwD-14" value="" style="endArrow=classic;html=1;rounded=0;exitX=1;exitY=0.5;exitDx=0;exitDy=0;entryX=0;entryY=0.5;entryDx=0;entryDy=0;" edge="1" parent="1" source="Ldn0-aXc2dHIy_c38FwD-9" target="Ldn0-aXc2dHIy_c38FwD-10">
          <mxGeometry width="50" height="50" relative="1" as="geometry">
            <mxPoint x="405" y="459" as="sourcePoint" />
            <mxPoint x="405" y="495" as="targetPoint" />
          </mxGeometry>
        </mxCell>
        <mxCell id="Ldn0-aXc2dHIy_c38FwD-15" value="Have 3 attempts been exceeded?" style="rhombus;whiteSpace=wrap;html=1;" vertex="1" parent="1">
          <mxGeometry x="176.5" y="240" width="175" height="110" as="geometry" />
        </mxCell>
        <mxCell id="Ldn0-aXc2dHIy_c38FwD-17" value="Lock Account" style="rounded=0;whiteSpace=wrap;html=1;fillColor=#dae8fc;strokeColor=#6c8ebf;" vertex="1" parent="1">
          <mxGeometry x="20" y="265" width="120" height="60" as="geometry" />
        </mxCell>
        <mxCell id="Ldn0-aXc2dHIy_c38FwD-20" value="Show error message" style="shape=parallelogram;perimeter=parallelogramPerimeter;whiteSpace=wrap;html=1;fixedSize=1;" vertex="1" parent="1">
          <mxGeometry x="425" y="600" width="140" height="60" as="geometry" />
        </mxCell>
        <mxCell id="Ldn0-aXc2dHIy_c38FwD-21" value="Reset Error Message" style="rounded=0;whiteSpace=wrap;html=1;fillColor=#dae8fc;strokeColor=#6c8ebf;" vertex="1" parent="1">
          <mxGeometry x="40" y="640" width="120" height="60" as="geometry" />
        </mxCell>
        <mxCell id="Ldn0-aXc2dHIy_c38FwD-22" value="Yes" style="text;strokeColor=none;align=center;fillColor=none;html=1;verticalAlign=middle;whiteSpace=wrap;rounded=0;" vertex="1" parent="1">
          <mxGeometry x="291" y="470" width="60" height="30" as="geometry" />
        </mxCell>
        <mxCell id="Ldn0-aXc2dHIy_c38FwD-23" value="Yes" style="text;strokeColor=none;align=center;fillColor=none;html=1;verticalAlign=middle;whiteSpace=wrap;rounded=0;" vertex="1" parent="1">
          <mxGeometry x="720" y="70" width="60" height="30" as="geometry" />
        </mxCell>
        <mxCell id="Ldn0-aXc2dHIy_c38FwD-24" value="" style="endArrow=classic;html=1;rounded=0;exitX=0.5;exitY=1;exitDx=0;exitDy=0;entryX=0.5;entryY=0;entryDx=0;entryDy=0;" edge="1" parent="1" source="Ldn0-aXc2dHIy_c38FwD-7" target="Ldn0-aXc2dHIy_c38FwD-11">
          <mxGeometry width="50" height="50" relative="1" as="geometry">
            <mxPoint x="330" y="580" as="sourcePoint" />
            <mxPoint x="330" y="640" as="targetPoint" />
          </mxGeometry>
        </mxCell>
        <mxCell id="Ldn0-aXc2dHIy_c38FwD-26" value="No" style="text;strokeColor=none;align=center;fillColor=none;html=1;verticalAlign=middle;whiteSpace=wrap;rounded=0;" vertex="1" parent="1">
          <mxGeometry x="264" y="600" width="60" height="30" as="geometry" />
        </mxCell>
        <mxCell id="Ldn0-aXc2dHIy_c38FwD-28" value="Yes" style="text;strokeColor=none;align=center;fillColor=none;html=1;verticalAlign=middle;whiteSpace=wrap;rounded=0;" vertex="1" parent="1">
          <mxGeometry x="140" y="265" width="60" height="30" as="geometry" />
        </mxCell>
        <mxCell id="Ldn0-aXc2dHIy_c38FwD-29" value="" style="ellipse;whiteSpace=wrap;html=1;aspect=fixed;" vertex="1" parent="1">
          <mxGeometry x="249" y="650" width="30" height="30" as="geometry" />
        </mxCell>
        <mxCell id="Ldn0-aXc2dHIy_c38FwD-31" value="No" style="text;strokeColor=none;align=center;fillColor=none;html=1;verticalAlign=middle;whiteSpace=wrap;rounded=0;" vertex="1" parent="1">
          <mxGeometry x="350" y="399" width="60" height="30" as="geometry" />
        </mxCell>
        <mxCell id="Ldn0-aXc2dHIy_c38FwD-33" value="No" style="text;strokeColor=none;align=center;fillColor=none;html=1;verticalAlign=middle;whiteSpace=wrap;rounded=0;" vertex="1" parent="1">
          <mxGeometry x="376" y="509" width="60" height="30" as="geometry" />
        </mxCell>
        <mxCell id="Ldn0-aXc2dHIy_c38FwD-36" value="" style="endArrow=classic;html=1;rounded=0;entryX=0.5;entryY=0;entryDx=0;entryDy=0;exitX=0.5;exitY=1;exitDx=0;exitDy=0;" edge="1" parent="1" source="Ldn0-aXc2dHIy_c38FwD-4" target="Ldn0-aXc2dHIy_c38FwD-15">
          <mxGeometry width="50" height="50" relative="1" as="geometry">
            <mxPoint x="330" y="610" as="sourcePoint" />
            <mxPoint x="330" y="670" as="targetPoint" />
          </mxGeometry>
        </mxCell>
        <mxCell id="Ldn0-aXc2dHIy_c38FwD-37" value="" style="endArrow=classic;html=1;rounded=0;entryX=0.5;entryY=0;entryDx=0;entryDy=0;exitX=0.5;exitY=1;exitDx=0;exitDy=0;" edge="1" parent="1" source="Ldn0-aXc2dHIy_c38FwD-15" target="Ldn0-aXc2dHIy_c38FwD-7">
          <mxGeometry width="50" height="50" relative="1" as="geometry">
            <mxPoint x="260" y="210" as="sourcePoint" />
            <mxPoint x="260" y="250" as="targetPoint" />
          </mxGeometry>
        </mxCell>
      </root>
    </mxGraphModel>
  </diagram>
</mxfile>
